<svg xmlns="http://www.w3.org/2000/svg" version="1.1" xmlnsXlink="http://www.w3.org/1999/xlink" xmlnsSvgjs="http://svgjs.dev/svgjs" viewBox="0 0 5.4224351220904 5.816352105129004"><g transform="matrix(1,0,0,1,0.4679375317483254,3.890414573380679)"><g><path d=" M 0.4845 0.10650000000000004 L 0.8505 1.0500000000000003 Q 0.873 1.1070000000000002 0.9015 1.1257500000000003 Q 0.93 1.1445 0.9540000000000001 1.1460000000000001 L 0.9540000000000001 1.1760000000000002 Q 0.924 1.1730000000000003 0.8805000000000001 1.1722500000000002 Q 0.837 1.1715000000000002 0.7935 1.1715000000000002 Q 0.735 1.1715000000000002 0.684 1.1722500000000002 Q 0.633 1.1730000000000003 0.6015 1.1760000000000002 L 0.6015 1.1460000000000001 Q 0.678 1.1430000000000002 0.6990000000000001 1.1197500000000002 Q 0.72 1.0965000000000003 0.6900000000000001 1.0200000000000002 L 0.41100000000000003 0.2745000000000002 L 0.435 0.2550000000000001 L 0.17400000000000002 0.9330000000000002 Q 0.15 0.9930000000000001 0.1455 1.0342500000000001 Q 0.14100000000000001 1.0755000000000001 0.15375 1.0995000000000001 Q 0.1665 1.1235000000000002 0.19725 1.1340000000000001 Q 0.228 1.1445 0.2745 1.1460000000000001 L 0.2745 1.1760000000000002 Q 0.2325 1.1730000000000003 0.18675 1.1722500000000002 Q 0.14100000000000001 1.1715000000000002 0.10200000000000001 1.1715000000000002 Q 0.0645 1.1715000000000002 0.03825 1.1722500000000002 Q 0.012 1.1730000000000003 -0.0105 1.1760000000000002 L -0.0105 1.1460000000000001 Q 0.0195 1.1385 0.051000000000000004 1.1107500000000001 Q 0.0825 1.0830000000000002 0.108 1.0155 L 0.4605 0.10650000000000004 Q 0.4665 0.10650000000000004 0.47250000000000003 0.10650000000000004 Q 0.47850000000000004 0.10650000000000004 0.4845 0.10650000000000004 M 0.6675 0.7440000000000002 L 0.6675 0.7740000000000001 L 0.2205 0.7740000000000001 L 0.23550000000000001 0.7440000000000002 L 0.6675 0.7440000000000002 M 1.27200732421875 0.3825000000000002 Q 1.33200732421875 0.3825000000000002 1.37400732421875 0.40200000000000014 Q 1.41600732421875 0.4215000000000001 1.43550732421875 0.43800000000000017 Q 1.48500732421875 0.47850000000000015 1.49550732421875 0.3840000000000001 L 1.53000732421875 0.3840000000000001 Q 1.52700732421875 0.42600000000000016 1.52550732421875 0.4837500000000001 Q 1.5240073242187502 0.5415000000000001 1.5240073242187502 0.6390000000000001 L 1.48950732421875 0.6390000000000001 Q 1.4805073242187499 0.5835000000000001 1.45875732421875 0.5310000000000001 Q 1.43700732421875 0.47850000000000015 1.39500732421875 0.4447500000000001 Q 1.35300732421875 0.41100000000000014 1.28550732421875 0.41100000000000014 Q 1.23300732421875 0.41100000000000014 1.19775732421875 0.44025000000000014 Q 1.16250732421875 0.46950000000000014 1.16250732421875 0.5265000000000002 Q 1.16250732421875 0.5715000000000001 1.18950732421875 0.6037500000000001 Q 1.21650732421875 0.6360000000000001 1.26000732421875 0.6637500000000002 Q 1.30350732421875 0.6915000000000002 1.35450732421875 0.7245000000000001 Q 1.41150732421875 0.7605000000000002 1.45800732421875 0.7980000000000002 Q 1.5045073242187499 0.8355000000000001 1.53225732421875 0.8805000000000002 Q 1.56000732421875 0.9255000000000002 1.56000732421875 0.9870000000000001 Q 1.56000732421875 1.056 1.5240073242187502 1.1025000000000003 Q 1.4880073242187501 1.1490000000000002 1.43025732421875 1.1730000000000003 Q 1.37250732421875 1.197 1.30350732421875 1.197 Q 1.27050732421875 1.197 1.2412573242187501 1.19175 Q 1.21200732421875 1.1865 1.18500732421875 1.1760000000000002 Q 1.17000732421875 1.1685 1.15425732421875 1.1580000000000001 Q 1.13850732421875 1.1475000000000002 1.12350732421875 1.1355000000000002 Q 1.10850732421875 1.1235000000000002 1.09650732421875 1.1362500000000002 Q 1.08450732421875 1.1490000000000002 1.07850732421875 1.1865 L 1.04400732421875 1.1865 Q 1.04700732421875 1.1385 1.04850732421875 1.0695000000000001 Q 1.05000732421875 1.0005000000000002 1.05000732421875 0.8865000000000002 L 1.08450732421875 0.8865000000000002 Q 1.09500732421875 0.9705000000000001 1.11450732421875 1.0335 Q 1.13400732421875 1.0965000000000003 1.17600732421875 1.1317500000000003 Q 1.2180073242187501 1.1670000000000003 1.29300732421875 1.1670000000000003 Q 1.3230073242187501 1.1670000000000003 1.35375732421875 1.1535000000000002 Q 1.38450732421875 1.1400000000000001 1.4055073242187501 1.1085000000000003 Q 1.42650732421875 1.0770000000000002 1.42650732421875 1.0245000000000002 Q 1.42650732421875 0.9585000000000001 1.37850732421875 0.9165000000000001 Q 1.33050732421875 0.8745000000000002 1.25700732421875 0.8280000000000001 Q 1.20300732421875 0.7935000000000001 1.15575732421875 0.7590000000000001 Q 1.10850732421875 0.7245000000000001 1.07925732421875 0.6810000000000002 Q 1.05000732421875 0.6375000000000002 1.05000732421875 0.5760000000000002 Q 1.05000732421875 0.5085000000000002 1.08075732421875 0.4657500000000001 Q 1.11150732421875 0.42300000000000015 1.16250732421875 0.40275000000000016 Q 1.21350732421875 0.3825000000000002 1.27200732421875 0.3825000000000002 M 1.9245395507812502 0.0015000000000000568 L 1.9245395507812502 0.5625000000000001 Q 1.96353955078125 0.46050000000000013 2.03328955078125 0.4215000000000001 Q 2.10303955078125 0.3825000000000002 2.17953955078125 0.3825000000000002 Q 2.23653955078125 0.3825000000000002 2.27478955078125 0.3975000000000002 Q 2.31303955078125 0.4125000000000001 2.33853955078125 0.4395000000000001 Q 2.36703955078125 0.46950000000000014 2.37903955078125 0.5145000000000002 Q 2.39103955078125 0.5595000000000001 2.39103955078125 0.6360000000000001 L 2.39103955078125 1.0365000000000002 Q 2.39103955078125 1.0995000000000001 2.41728955078125 1.122 Q 2.4435395507812503 1.1445 2.50503955078125 1.1445 L 2.50503955078125 1.1760000000000002 Q 2.47953955078125 1.1745 2.42703955078125 1.1722500000000002 Q 2.37453955078125 1.1700000000000002 2.3250395507812502 1.1700000000000002 Q 2.27553955078125 1.1700000000000002 2.22828955078125 1.1722500000000002 Q 2.18103955078125 1.1745 2.15703955078125 1.1760000000000002 L 2.15703955078125 1.1445 Q 2.21103955078125 1.1445 2.23353955078125 1.122 Q 2.2560395507812503 1.0995000000000001 2.2560395507812503 1.0365000000000002 L 2.2560395507812503 0.6030000000000001 Q 2.2560395507812503 0.5565000000000001 2.24853955078125 0.5175000000000002 Q 2.24103955078125 0.47850000000000015 2.21478955078125 0.4545000000000001 Q 2.18853955078125 0.4305000000000001 2.13453955078125 0.4305000000000001 Q 2.07303955078125 0.4305000000000001 2.02578955078125 0.4650000000000002 Q 1.97853955078125 0.49950000000000017 1.95153955078125 0.5610000000000002 Q 1.9245395507812502 0.6225000000000002 1.9245395507812502 0.7020000000000002 L 1.9245395507812502 1.0365000000000002 Q 1.9245395507812502 1.0995000000000001 1.9470395507812501 1.122 Q 1.96953955078125 1.1445 2.02353955078125 1.1445 L 2.02353955078125 1.1760000000000002 Q 1.99953955078125 1.1745 1.95228955078125 1.1722500000000002 Q 1.90503955078125 1.1700000000000002 1.85553955078125 1.1700000000000002 Q 1.8060395507812501 1.1700000000000002 1.7535395507812501 1.1722500000000002 Q 1.7010395507812501 1.1745 1.67553955078125 1.1760000000000002 L 1.67553955078125 1.1445 Q 1.73703955078125 1.1445 1.76328955078125 1.122 Q 1.78953955078125 1.0995000000000001 1.78953955078125 1.0365000000000002 L 1.78953955078125 0.1815000000000001 Q 1.78953955078125 0.1140000000000001 1.76553955078125 0.08175000000000021 Q 1.7415395507812501 0.0495000000000001 1.67553955078125 0.0495000000000001 L 1.67553955078125 0.018000000000000238 Q 1.72353955078125 0.022500000000000187 1.76853955078125 0.022500000000000187 Q 1.8120395507812501 0.022500000000000187 1.85178955078125 0.01725000000000021 Q 1.89153955078125 0.012000000000000233 1.9245395507812502 0.0015000000000000568 M 2.82455859375 2.220446049250313e-16 L 2.82455859375 1.0365000000000002 Q 2.82455859375 1.0995000000000001 2.85080859375 1.122 Q 2.87705859375 1.1445 2.93855859375 1.1445 L 2.93855859375 1.1760000000000002 Q 2.9130585937499998 1.1745 2.86130859375 1.1722500000000002 Q 2.80955859375 1.1700000000000002 2.75705859375 1.1700000000000002 Q 2.70605859375 1.1700000000000002 2.65355859375 1.1722500000000002 Q 2.60105859375 1.1745 2.57555859375 1.1760000000000002 L 2.57555859375 1.1445 Q 2.63705859375 1.1445 2.66330859375 1.122 Q 2.6895585937499997 1.0995000000000001 2.6895585937499997 1.0365000000000002 L 2.6895585937499997 0.18000000000000016 Q 2.6895585937499997 0.11250000000000004 2.66555859375 0.08025000000000015 Q 2.64155859375 0.04800000000000004 2.57555859375 0.04800000000000004 L 2.57555859375 0.01650000000000018 Q 2.62355859375 0.02100000000000013 2.66855859375 0.02100000000000013 Q 2.71205859375 0.02100000000000013 2.75180859375 0.015750000000000153 Q 2.79155859375 0.010500000000000176 2.82455859375 2.220446049250313e-16 M 3.37956005859375 0.3825000000000002 Q 3.51156005859375 0.3825000000000002 3.58581005859375 0.4627500000000001 Q 3.66006005859375 0.5430000000000001 3.66006005859375 0.7125000000000001 L 3.13056005859375 0.7125000000000001 L 3.1290600585937502 0.6840000000000002 L 3.51606005859375 0.6840000000000002 Q 3.51906005859375 0.6105000000000002 3.5040600585937502 0.5482500000000001 Q 3.48906005859375 0.4860000000000001 3.4568100585937502 0.4485000000000001 Q 3.42456005859375 0.41100000000000014 3.37356005859375 0.41100000000000014 Q 3.3045600585937502 0.41100000000000014 3.25131005859375 0.4800000000000001 Q 3.19806005859375 0.5490000000000002 3.1875600585937502 0.6990000000000001 L 3.19206005859375 0.7050000000000001 Q 3.18906005859375 0.7275000000000001 3.1875600585937502 0.7545000000000002 Q 3.18606005859375 0.7815000000000001 3.18606005859375 0.8085000000000002 Q 3.18606005859375 0.9105000000000001 3.21906005859375 0.9840000000000002 Q 3.25206005859375 1.0575 3.30531005859375 1.0957500000000002 Q 3.35856005859375 1.1340000000000001 3.41556005859375 1.1340000000000001 Q 3.46056005859375 1.1340000000000001 3.50106005859375 1.1197500000000002 Q 3.54156005859375 1.1055000000000001 3.5760600585937503 1.0725000000000002 Q 3.61056005859375 1.0395 3.63606005859375 0.9840000000000002 L 3.66606005859375 0.9960000000000002 Q 3.64956005859375 1.0455 3.61206005859375 1.092 Q 3.5745600585937503 1.1385 3.51756005859375 1.16775 Q 3.46056005859375 1.197 3.38556005859375 1.197 Q 3.27756005859375 1.197 3.2003100585937503 1.1475000000000002 Q 3.12306005859375 1.098 3.0818100585937502 1.01025 Q 3.04056005859375 0.9225000000000001 3.04056005859375 0.8085000000000002 Q 3.04056005859375 0.6765000000000001 3.0825600585937503 0.5812500000000002 Q 3.12456005859375 0.4860000000000001 3.20106005859375 0.43425000000000014 Q 3.27756005859375 0.3825000000000002 3.37956005859375 0.3825000000000002 M 4.471517578125 0.4035000000000002 L 4.471517578125 0.4335000000000001 Q 4.4430175781250005 0.4365000000000001 4.4190175781250005 0.4590000000000002 Q 4.3950175781250005 0.48150000000000015 4.374017578125001 0.5385000000000001 L 4.128017578125 1.1835000000000002 L 4.102517578125 1.1835000000000002 L 3.8265175781250003 0.5190000000000001 Q 3.798017578125 0.46050000000000013 3.7702675781250004 0.4477500000000001 Q 3.742517578125 0.43500000000000016 3.7245175781250004 0.43500000000000016 L 3.7245175781250004 0.4035000000000002 Q 3.7575175781250003 0.40800000000000014 3.7935175781250003 0.4102500000000001 Q 3.8295175781250004 0.4125000000000001 3.871517578125 0.4125000000000001 Q 3.918017578125 0.4125000000000001 3.9697675781250004 0.4095000000000001 Q 4.0215175781250005 0.4065000000000002 4.0665175781250005 0.4035000000000002 L 4.0665175781250005 0.43500000000000016 Q 4.029017578125 0.43500000000000016 3.999767578125 0.44025000000000014 Q 3.9705175781250004 0.4455000000000001 3.963017578125 0.4717500000000001 Q 3.9555175781250003 0.4980000000000001 3.9810175781250003 0.5610000000000002 L 4.165517578125 1.0185000000000002 L 4.156517578125 1.0215 L 4.327517578125001 0.5745000000000001 Q 4.3470175781250004 0.5250000000000001 4.343267578125 0.49575000000000014 Q 4.339517578125 0.46650000000000014 4.312517578125 0.4515000000000001 Q 4.285517578125 0.4365000000000001 4.2315175781250005 0.4335000000000001 L 4.2315175781250005 0.4035000000000002 Q 4.258517578125 0.40500000000000014 4.2780175781250005 0.40575000000000017 Q 4.297517578125 0.4065000000000002 4.316267578125 0.4072500000000001 Q 4.335017578125 0.40800000000000014 4.357517578125 0.40800000000000014 Q 4.392017578125 0.40800000000000014 4.4197675781250005 0.4065000000000002 Q 4.447517578125 0.40500000000000014 4.471517578125 0.4035000000000002 M 4.128017578125 1.1835000000000002 L 4.077017578125 1.314 Q 4.062017578125 1.3515000000000001 4.046267578125001 1.3770000000000002 Q 4.030517578125 1.4025 4.012517578125 1.419 Q 3.988517578125 1.4415000000000002 3.9555175781250003 1.44975 Q 3.9225175781250003 1.4580000000000002 3.895517578125 1.4580000000000002 Q 3.867017578125 1.4580000000000002 3.843767578125 1.4475000000000002 Q 3.820517578125 1.4370000000000003 3.807017578125 1.4167500000000002 Q 3.7935175781250003 1.3965 3.7935175781250003 1.368 Q 3.7935175781250003 1.332 3.8145175781250003 1.3102500000000001 Q 3.835517578125 1.2885000000000002 3.8730175781250002 1.2885000000000002 Q 3.904517578125 1.2885000000000002 3.927017578125 1.3065000000000002 Q 3.949517578125 1.3245000000000002 3.949517578125 1.3590000000000002 Q 3.949517578125 1.3845 3.937517578125 1.4010000000000002 Q 3.925517578125 1.4175000000000002 3.9090175781250003 1.4265 Q 3.912017578125 1.4280000000000002 3.914267578125 1.4280000000000002 Q 3.916517578125 1.4280000000000002 3.918017578125 1.4280000000000002 Q 3.9585175781250004 1.4280000000000002 3.9900175781250002 1.4002500000000002 Q 4.0215175781250005 1.3725 4.045517578125001 1.3110000000000002 L 4.099517578125 1.1715000000000002 L 4.128017578125 1.1835000000000002" fill="#8a615c" fill-rule="nonzero"></path></g><g></g><g clip-path="url(#SvgjsClipPath1001)"><g clip-path="url(#SvgjsClipPath1000c67cae64-69f6-487e-9792-f46fdc7c7b6f)"><path d=" M 0.8185590670289346 -1.1273542703834858 L 1.3250978177361648 -0.25 L 1.8316365684434024 -1.1273542703834818 L 2.650195635472337 -1.1273542703834818 L 2.240916101957873 -1.8362458978805858 L 2.650195635472337 -2.54513752537769 L 1.8316365684434024 -2.54513752537769 L 1.3250978177361648 -3.422477041632354 L 0.8185590670289346 -2.54513752537769 L 0 -2.54513752537769 L 0.4092795335144635 -1.8362458978805858 L 0 -1.1273542703834818 Z M 0.1206887737616528 -1.1694625540406722 L 0.6356078696396219 -1.4443172198604606 L 0.7942885251172086 -1.1694625540406722 Z M 1.3698618445812598 -1.8362458978805896 L 1.9985795360611454 -2.171843312059399 L 2.19234550987677 -1.8362458978805896 L 1.9985795360611454 -1.5006484837017802 Z M 1.9775106401037303 -1.4641615231256746 L 1.8073660265316762 -1.1694625540406722 L 1.3461962219512236 -1.1694625540406722 L 1.3461962219512236 -1.8011310712849002 Z M 1.3461962219512236 -1.871375478605101 L 1.3461962219512236 -2.503058749978151 L 1.8073660265316762 -2.503058749978151 L 1.9775106401037303 -2.2083597808931485 Z M 1.3040879382940447 -1.871375478605101 L 0.6727735201415304 -2.2083597808931446 L 0.8429181337135918 -2.5030587499781474 L 1.3040879382940447 -2.5030587499781474 Z M 1.2804813321792958 -1.8362754061382334 L 0.6517636406994103 -1.500677991959424 L 0.4579976668837856 -1.8362754061382334 L 0.6517636406994103 -2.171872820317039 Z M 1.3040879382940447 -1.8011605795425403 L 1.3040879382940447 -1.1694920622983083 L 0.8429181337135918 -1.1694920622983083 L 0.6727735201415304 -1.4641910313833109 Z M 1.3040879382940447 -1.1273837786411294 L 1.3040879382940447 -0.37067401963283464 L 0.8672329380117835 -1.1273247621258418 Z M 1.3461962219512236 -0.37073303614812225 L 1.3461962219512236 -1.1273837786411294 L 1.7830512222334847 -1.1273837786411294 Z M 2.014676290605639 -1.4443467281181044 L 2.5295953864836154 -1.1694920622983123 L 1.8559808809992377 -1.1694920622983123 Z M 2.5587200367776806 -1.2016855713873027 L 2.035745186563054 -1.4808336886942175 L 2.21664556004614 -1.7941671224810507 Z M 2.035745186563054 -2.1916876153246054 L 2.5587200367776806 -2.4708357326315205 L 2.21664556004614 -1.878354181537776 Z M 2.5296101406124296 -2.5029997334628633 L 2.0146910447344606 -2.228145067643071 L 1.856010389256874 -2.5029997334628633 Z M 1.3461962219512236 -2.545108017120046 L 1.3461962219512236 -3.3017587596130533 L 1.7830512222334847 -2.545108017120046 Z M 1.3040879382940447 -3.3017587596130533 L 1.3040879382940447 -2.545108017120046 L 0.8672329380117835 -2.545108017120046 Z M 0.6356078696396219 -2.228145067643071 L 0.1206887737616528 -2.5029997334628633 L 0.7942885251172086 -2.5029997334628633 Z M 0.09157887759640197 -2.470791470245051 L 0.6145389736822143 -2.191658107066962 L 0.4336386001991208 -1.8783246732801249 Z M 0.6145389736822143 -1.4807894263077481 L 0.09157887759640197 -1.2016560631296587 L 0.4336386001991208 -1.7941228600945813 Z" fill="#e9c3ad" transform="matrix(1,0,0,1,0,0)" fill-rule="nonzero"></path></g></g></g><defs><clipPath id="SvgjsClipPath1001"><path d=" M 0 -3.422477041632354 h 2.650195635472344 v 3.172477041632354 h -2.650195635472344 Z"></path></clipPath><clipPath id="SvgjsClipPath1000c67cae64-69f6-487e-9792-f46fdc7c7b6f"><path d=" M 0 -3.422477041632354 L 2.650195635472344 -3.422477041632354 L 2.650195635472344 -0.25 L 0 -0.25 Z"></path></clipPath></defs></svg>